#!OML:ASF F:\VICON\USERDATA\INSTALL\rory3\rory3.ASF
:FULLY-SPECIFIED
:DEGREES
27
root 0.4580875592236752 18.08982475941248 20.11186112387592 -5.2416658816108965 -1.3389390216454564 1.7909207014804007
lfemur -4.727474293896481 -3.416795692894711 -27.587770082576046
ltibia 27.043538183213997
lfoot -13.171620145433124 -1.2928524761474272
ltoes 1.1955414848253367
rfemur -28.674112569529058 -4.438365456836092 19.87561629425945
rtibia 88.62966970451065
rfoot 1.543656643921771 -7.380131028870678
rtoes 12.516386649187668
lowerback 11.128605537657629 0.23864813255533146 -2.2286589857182673
upperback 0.4805602862418507 0.10650077494810706 0.521080259912371
thorax -5.851920625857884 0.11856088436469658 1.8901404686474743
lowerneck -15.599444052561928 -2.6991302674158812 -2.0388453119630423
upperneck 21.81821534824406 -3.4634551277763252 0.844182982543366
head 9.492603281838193 -1.6756786659593308 0.17663806841551571
lclavicle -1.1754056980465657e-15 -9.76100229095887e-16
lhumerus -32.71029787746848 3.3845294039695597 80.78823602237176
lradius 24.60295698538016
lwrist 5.862523441328612
lhand -28.621497373059547 20.74009448049161
lfingers 7.125020000000056
lthumb -1.9858280541733118 50.69238513584253
rclavicle -1.1754056980465657e-15 -9.761002290958875e-16
rhumerus -32.02940036780329 -21.734565400015462 -78.53933509982888
rradius 28.19858330273854
rwrist 5.375201533891951
rhand -17.071399916869364 29.12162155326559
rfingers 7.125020000000056
rthumb 9.16572268733817 -4.767234008770112
28
root 0.4633943657257106 18.123026560548965 21.949838982805 -4.809005638208791 -0.49315301767415054 2.2809536011156095
lfemur -2.5496869323199114 -3.0816457793771055 -28.72744299685692
ltibia 24.077836577062797
lfoot -15.243438934151488 -0.743592987897653
ltoes 3.3618393663712167
rfemur -29.683255348992375 -3.731016393929312 18.859326864440455
rtibia 77.75474196894072
rfoot -0.7813844578673799 -9.3208929815431
rtoes 6.9272692038271
lowerback 10.774606793646223 -0.043929653329553564 -2.809999525803714
upperback 0.44798416293917737 -0.3720754321598666 0.4436322598493647
thorax -5.642628139747993 -0.1016137412469329 2.3110888347372027
lowerneck -15.519845145820257 -2.7622126429928273 -2.194299043970984
upperneck 21.78142157164712 -3.53324519999031 1.0209193378906898
head 9.482539988057304 -1.7054800975940174 0.24504572198962102
lclavicle -1.0786812804035915e-15 -9.009992417147077e-16
lhumerus -30.62716095062373 1.6327892267123207 80.51402534176857
lradius 25.147677620537458
lwrist 5.716664324869718
lhand -28.376762709591556 22.653645548982833
lfingers 7.125020000000057
lthumb -1.749555423911972 52.618988328849596
rclavicle -1.0786812804035915e-15 -9.009992417147077e-16
rhumerus -31.836075700060743 -21.611430033387784 -78.57255031202712
rradius 27.096016082302896
rwrist 4.833544589948784
rhand -17.064642315565617 28.62766657249737
rfingers 7.125020000000057
rthumb 9.172199966962685 -4.693902121375015
29
root 0.473934025157392 18.005585672514584 22.58058083239579 -4.06394332435124 0.2930078293848781 3.3007899518683526
lfemur 1.6432565895942108 -2.670716847574872 -30.008975459124166
ltibia 21.034724059236428
lfoot -19.25124657575554 1.2865841919079974
ltoes 4.580608987081978
rfemur -32.1659681111555 -2.6250961115567564 17.308279862728867
rtibia 66.57245629061666
rfoot -2.149936362655528 -11.437310241692797
rtoes 3.3745391264194673
lowerback 10.847966346308867 -0.3298151814189738 -3.8645381658208926
upperback 0.5134843849537687 -0.9115728531047232 0.3751297964328897
thorax -5.467271378215917 -0.3388141427384782 2.9479938479571484
lowerneck -15.694617869078341 -2.7891570936095533 -2.335288585801752
upperneck 21.285184889269235 -3.5594063823280098 1.2901266639212536
head 9.363717797716234 -1.7142688279246554 0.3487530248047956
lclavicle -6.81671216639581e-16 -5.938834657528702e-16
lhumerus -27.411774462451024 -1.1871382200486993 80.65602558572998
lradius 27.68965205269682
lwrist 6.823307152968182
lhand -28.353748099677997 23.54236377540283
lfingers 7.125020000000058
lthumb -1.7273461435848059 53.501967986998025
rclavicle -6.816712166395806e-16 -5.938834657528703e-16
rhumerus -32.80339095326912 -21.107862746562095 -78.60368495765965
rradius 27.18231862210169
rwrist 4.737952549405256
rhand -17.194572827700558 28.856036533616322
rfingers 7.125020000000058
rthumb 9.047182439137528 -4.619641573930208
30
root 0.4218348564285457 18.066909569723492 26.30459325247889 -3.1019100750084783 1.315894198598436 4.437711845762845
lfemur 7.264095024219362 -2.6710462080069233 -32.02667509244464
ltibia 16.706456093267903
lfoot -19.164241881236318 0.2633590878065446
ltoes 3.9867329488741836
rfemur -34.64916148123251 -0.4578883496959927 15.277183694169231
rtibia 47.729267992392415
rfoot 0.24701153990115987 -14.447881934905514
rtoes -1.5172540975073385
lowerback 10.339819032364996 -0.8228815025345354 -5.118532806603087
upperback 0.3164396398626233 -1.6744308389864195 0.3603966617910821
thorax -5.37948899443003 -0.6955192136701874 3.6396018124702314
lowerneck -15.965030039223524 -2.9160501009031754 -2.620568830146427
upperneck 20.69590044483099 -3.7145847561650194 1.5023424292723495
head 9.227016355524894 -1.7732297012885634 0.46274569846466923
lclavicle -9.670689107108652e-16 -8.14491270868238e-16
lhumerus -26.425760432819636 -4.6817060492694775 80.90007125445032
lradius 34.02312908499144
lwrist 9.442971110426122
lhand -28.506456014947123 22.30038868647111
lfingers 7.125020000000057
lthumb -1.8749004805393161 52.25490492282793
rclavicle -9.670689107108654e-16 -8.144912708682378e-16
rhumerus -35.96471223961223 -20.436134264815138 -79.02882544530033
rradius 30.926909165891857
rwrist 3.6044860281570443
rhand -17.21467914771021 27.63655168826817
rfingers 7.125020000000057
rthumb 9.027894448515573 -3.7766431597832404
